<svg width="24" height="24" viewBox="0 0 24 24" fill="none" xmlns="http://www.w3.org/2000/svg">
<path d="M8 1.5H1.5V22.5H22.5V16" stroke="#00D740" stroke-width="2"/>
<path d="M11.2929 11.2929L10.5858 12L12 13.4142L12.7071 12.7071L11.2929 11.2929ZM24 1C24 0.447716 23.5523 4.77922e-07 23 4.77922e-07L14 4.77922e-07C13.4477 4.77922e-07 13 0.447716 13 1C13 1.55229 13.4477 2 14 2H22V10C22 10.5523 22.4477 11 23 11C23.5523 11 24 10.5523 24 10L24 1ZM12.7071 12.7071L23.7071 1.70711L22.2929 0.292894L11.2929 11.2929L12.7071 12.7071Z" fill="#00D740"/>
</svg>
