<svg width="100" height="101" viewBox="0 0 100 101" fill="none" xmlns="http://www.w3.org/2000/svg">
<path d="M50 0.710693L93.3013 25.7107V75.7107L50 100.711L6.69873 75.7107V25.7107L50 0.710693Z" fill="#00D740"/>
<path d="M42.3008 44.0898C42.4883 44.0898 42.6328 44.125 42.7344 44.1953C42.8359 44.2578 42.9102 44.375 42.957 44.5469C43.0117 44.7188 43.0391 44.9688 43.0391 45.2969C43.0391 45.625 43.0117 45.875 42.957 46.0469C42.9102 46.2188 42.8359 46.3359 42.7344 46.3984C42.6328 46.4609 42.4883 46.4922 42.3008 46.4922H41.6328V57.4844C41.6328 57.7422 41.5352 57.9336 41.3398 58.0586C41.1445 58.1914 40.8125 58.2578 40.3438 58.2578C39.9844 58.2578 39.7148 58.207 39.5352 58.1055C39.3633 58.0117 39.2109 57.8555 39.0781 57.6367L33.8047 48.9062H33.7578V55.5977H35.0586C35.2461 55.5977 35.3906 55.6328 35.4922 55.7031C35.5938 55.7656 35.668 55.8828 35.7148 56.0547C35.7695 56.2266 35.7969 56.4766 35.7969 56.8047C35.7969 57.1328 35.7695 57.3828 35.7148 57.5547C35.668 57.7266 35.5938 57.8438 35.4922 57.9062C35.3906 57.9688 35.2461 58 35.0586 58H30.3242C30.1367 58 29.9922 57.9688 29.8906 57.9062C29.7891 57.8438 29.7109 57.7266 29.6562 57.5547C29.6094 57.3828 29.5859 57.1328 29.5859 56.8047C29.5859 56.4766 29.6094 56.2266 29.6562 56.0547C29.7109 55.8828 29.7891 55.7656 29.8906 55.7031C29.9922 55.6328 30.1367 55.5977 30.3242 55.5977H31.1094V46.4922H30.3242C30.1367 46.4922 29.9922 46.4609 29.8906 46.3984C29.7891 46.3359 29.7109 46.2188 29.6562 46.0469C29.6094 45.875 29.5859 45.625 29.5859 45.2969C29.5859 44.9688 29.6094 44.7188 29.6562 44.5469C29.7109 44.375 29.7891 44.2578 29.8906 44.1953C29.9922 44.125 30.1367 44.0898 30.3242 44.0898H33.418C33.7305 44.0898 33.9492 44.1953 34.0742 44.4062L38.9375 52.457H38.9844V46.4922H37.9062C37.7188 46.4922 37.5742 46.4609 37.4727 46.3984C37.3711 46.3359 37.293 46.2188 37.2383 46.0469C37.1914 45.875 37.168 45.625 37.168 45.2969C37.168 44.9688 37.1914 44.7188 37.2383 44.5469C37.293 44.375 37.3711 44.2578 37.4727 44.1953C37.5742 44.125 37.7188 44.0898 37.9062 44.0898H42.3008ZM55.5195 44.0898C55.793 44.0898 55.9883 44.1484 56.1055 44.2656C56.2227 44.3828 56.2812 44.5781 56.2812 44.8516V48.3906C56.2812 48.6562 56.168 48.8477 55.9414 48.9648C55.7148 49.0742 55.3516 49.1289 54.8516 49.1289C54.3672 49.1289 54.0352 49.0742 53.8555 48.9648C53.6758 48.8555 53.5859 48.6641 53.5859 48.3906V46.6094H48.8984V49.5742H51.7578C52.0312 49.5742 52.2227 49.6641 52.332 49.8438C52.4414 50.0234 52.4961 50.3555 52.4961 50.8398C52.4961 51.3242 52.4414 51.6562 52.332 51.8359C52.2227 52.0078 52.0312 52.0938 51.7578 52.0938H48.8984V55.4805H53.7031V53.1133C53.7031 52.8477 53.8164 52.6602 54.043 52.5508C54.2773 52.4336 54.6562 52.375 55.1797 52.375C55.6953 52.375 56.0469 52.4297 56.2344 52.5391C56.4219 52.6484 56.5156 52.8398 56.5156 53.1133V57.2383C56.5156 57.5039 56.457 57.6992 56.3398 57.8242C56.2227 57.9414 56.0273 58 55.7539 58H44.832C44.6445 58 44.5 57.9688 44.3984 57.9062C44.2969 57.8438 44.2188 57.7266 44.1641 57.5547C44.1172 57.3828 44.0938 57.1328 44.0938 56.8047C44.0938 56.4766 44.1172 56.2266 44.1641 56.0547C44.2188 55.8828 44.2969 55.7656 44.3984 55.7031C44.5 55.6328 44.6445 55.5977 44.832 55.5977H45.9688V46.4922H44.832C44.6445 46.4922 44.5 46.4609 44.3984 46.3984C44.2969 46.3359 44.2188 46.2188 44.1641 46.0469C44.1172 45.875 44.0938 45.625 44.0938 45.2969C44.0938 44.9688 44.1172 44.7188 44.1641 44.5469C44.2188 44.375 44.2969 44.2578 44.3984 44.1953C44.5 44.125 44.6445 44.0898 44.832 44.0898H55.5195ZM64.9766 43.832C66.2578 43.832 67.3867 44.125 68.3633 44.7109C69.3398 45.2891 70.0938 46.125 70.625 47.2188C71.1641 48.3047 71.4336 49.5781 71.4336 51.0391C71.4336 52.5 71.1641 53.7773 70.625 54.8711C70.0938 55.957 69.3398 56.793 68.3633 57.3789C67.3867 57.9648 66.2578 58.2578 64.9766 58.2578C63.6953 58.2578 62.5664 57.9648 61.5898 57.3789C60.6133 56.793 59.8555 55.957 59.3164 54.8711C58.7852 53.7773 58.5195 52.5 58.5195 51.0391C58.5195 49.5781 58.7852 48.3047 59.3164 47.2188C59.8555 46.125 60.6133 45.2891 61.5898 44.7109C62.5664 44.125 63.6953 43.832 64.9766 43.832ZM64.9766 46.4922C63.8906 46.4922 63.0664 46.8828 62.5039 47.6641C61.9414 48.4453 61.6602 49.5703 61.6602 51.0391C61.6602 52.5078 61.9414 53.6367 62.5039 54.4258C63.0664 55.207 63.8906 55.5977 64.9766 55.5977C66.0625 55.5977 66.8867 55.207 67.4492 54.4258C68.0117 53.6367 68.293 52.5078 68.293 51.0391C68.293 49.5703 68.0117 48.4453 67.4492 47.6641C66.8867 46.8828 66.0625 46.4922 64.9766 46.4922Z" fill="black"/>
</svg>
