<svg width="100" height="101" viewBox="0 0 100 101" fill="none" xmlns="http://www.w3.org/2000/svg">
<path d="M100 50.7107C100 78.3249 77.6142 100.711 50 100.711C22.3858 100.711 0 78.3249 0 50.7107C0 23.0965 22.3858 0.710693 50 0.710693C77.6142 0.710693 100 23.0965 100 50.7107ZM12.8606 50.7107C12.8606 71.2222 29.4885 87.8501 50 87.8501C70.5115 87.8501 87.1394 71.2222 87.1394 50.7107C87.1394 30.1992 70.5115 13.5713 50 13.5713C29.4885 13.5713 12.8606 30.1992 12.8606 50.7107Z" fill="#00D740"/>
<path d="M42.3008 43.0898C42.4883 43.0898 42.6328 43.125 42.7344 43.1953C42.8359 43.2578 42.9102 43.375 42.957 43.5469C43.0117 43.7188 43.0391 43.9688 43.0391 44.2969C43.0391 44.625 43.0117 44.875 42.957 45.0469C42.9102 45.2188 42.8359 45.3359 42.7344 45.3984C42.6328 45.4609 42.4883 45.4922 42.3008 45.4922H41.6328V56.4844C41.6328 56.7422 41.5352 56.9336 41.3398 57.0586C41.1445 57.1914 40.8125 57.2578 40.3438 57.2578C39.9844 57.2578 39.7148 57.207 39.5352 57.1055C39.3633 57.0117 39.2109 56.8555 39.0781 56.6367L33.8047 47.9062H33.7578V54.5977H35.0586C35.2461 54.5977 35.3906 54.6328 35.4922 54.7031C35.5938 54.7656 35.668 54.8828 35.7148 55.0547C35.7695 55.2266 35.7969 55.4766 35.7969 55.8047C35.7969 56.1328 35.7695 56.3828 35.7148 56.5547C35.668 56.7266 35.5938 56.8438 35.4922 56.9062C35.3906 56.9688 35.2461 57 35.0586 57H30.3242C30.1367 57 29.9922 56.9688 29.8906 56.9062C29.7891 56.8438 29.7109 56.7266 29.6562 56.5547C29.6094 56.3828 29.5859 56.1328 29.5859 55.8047C29.5859 55.4766 29.6094 55.2266 29.6562 55.0547C29.7109 54.8828 29.7891 54.7656 29.8906 54.7031C29.9922 54.6328 30.1367 54.5977 30.3242 54.5977H31.1094V45.4922H30.3242C30.1367 45.4922 29.9922 45.4609 29.8906 45.3984C29.7891 45.3359 29.7109 45.2188 29.6562 45.0469C29.6094 44.875 29.5859 44.625 29.5859 44.2969C29.5859 43.9688 29.6094 43.7188 29.6562 43.5469C29.7109 43.375 29.7891 43.2578 29.8906 43.1953C29.9922 43.125 30.1367 43.0898 30.3242 43.0898H33.418C33.7305 43.0898 33.9492 43.1953 34.0742 43.4062L38.9375 51.457H38.9844V45.4922H37.9062C37.7188 45.4922 37.5742 45.4609 37.4727 45.3984C37.3711 45.3359 37.293 45.2188 37.2383 45.0469C37.1914 44.875 37.168 44.625 37.168 44.2969C37.168 43.9688 37.1914 43.7188 37.2383 43.5469C37.293 43.375 37.3711 43.2578 37.4727 43.1953C37.5742 43.125 37.7188 43.0898 37.9062 43.0898H42.3008ZM55.5195 43.0898C55.793 43.0898 55.9883 43.1484 56.1055 43.2656C56.2227 43.3828 56.2812 43.5781 56.2812 43.8516V47.3906C56.2812 47.6562 56.168 47.8477 55.9414 47.9648C55.7148 48.0742 55.3516 48.1289 54.8516 48.1289C54.3672 48.1289 54.0352 48.0742 53.8555 47.9648C53.6758 47.8555 53.5859 47.6641 53.5859 47.3906V45.6094H48.8984V48.5742H51.7578C52.0312 48.5742 52.2227 48.6641 52.332 48.8438C52.4414 49.0234 52.4961 49.3555 52.4961 49.8398C52.4961 50.3242 52.4414 50.6562 52.332 50.8359C52.2227 51.0078 52.0312 51.0938 51.7578 51.0938H48.8984V54.4805H53.7031V52.1133C53.7031 51.8477 53.8164 51.6602 54.043 51.5508C54.2773 51.4336 54.6562 51.375 55.1797 51.375C55.6953 51.375 56.0469 51.4297 56.2344 51.5391C56.4219 51.6484 56.5156 51.8398 56.5156 52.1133V56.2383C56.5156 56.5039 56.457 56.6992 56.3398 56.8242C56.2227 56.9414 56.0273 57 55.7539 57H44.832C44.6445 57 44.5 56.9688 44.3984 56.9062C44.2969 56.8438 44.2188 56.7266 44.1641 56.5547C44.1172 56.3828 44.0938 56.1328 44.0938 55.8047C44.0938 55.4766 44.1172 55.2266 44.1641 55.0547C44.2188 54.8828 44.2969 54.7656 44.3984 54.7031C44.5 54.6328 44.6445 54.5977 44.832 54.5977H45.9688V45.4922H44.832C44.6445 45.4922 44.5 45.4609 44.3984 45.3984C44.2969 45.3359 44.2188 45.2188 44.1641 45.0469C44.1172 44.875 44.0938 44.625 44.0938 44.2969C44.0938 43.9688 44.1172 43.7188 44.1641 43.5469C44.2188 43.375 44.2969 43.2578 44.3984 43.1953C44.5 43.125 44.6445 43.0898 44.832 43.0898H55.5195ZM64.9766 42.832C66.2578 42.832 67.3867 43.125 68.3633 43.7109C69.3398 44.2891 70.0938 45.125 70.625 46.2188C71.1641 47.3047 71.4336 48.5781 71.4336 50.0391C71.4336 51.5 71.1641 52.7773 70.625 53.8711C70.0938 54.957 69.3398 55.793 68.3633 56.3789C67.3867 56.9648 66.2578 57.2578 64.9766 57.2578C63.6953 57.2578 62.5664 56.9648 61.5898 56.3789C60.6133 55.793 59.8555 54.957 59.3164 53.8711C58.7852 52.7773 58.5195 51.5 58.5195 50.0391C58.5195 48.5781 58.7852 47.3047 59.3164 46.2188C59.8555 45.125 60.6133 44.2891 61.5898 43.7109C62.5664 43.125 63.6953 42.832 64.9766 42.832ZM64.9766 45.4922C63.8906 45.4922 63.0664 45.8828 62.5039 46.6641C61.9414 47.4453 61.6602 48.5703 61.6602 50.0391C61.6602 51.5078 61.9414 52.6367 62.5039 53.4258C63.0664 54.207 63.8906 54.5977 64.9766 54.5977C66.0625 54.5977 66.8867 54.207 67.4492 53.4258C68.0117 52.6367 68.293 51.5078 68.293 50.0391C68.293 48.5703 68.0117 47.4453 67.4492 46.6641C66.8867 45.8828 66.0625 45.4922 64.9766 45.4922Z" fill="white"/>
</svg>
