<svg width="98" height="97" viewBox="0 0 98 97" fill="none" xmlns="http://www.w3.org/2000/svg">
<rect x="0.710693" y="48.7107" width="68.2914" height="68.2914" transform="rotate(-45 0.710693 48.7107)" fill="#00D740"/>
<path d="M41.3008 41.0899C41.4883 41.0899 41.6328 41.125 41.7344 41.1953C41.8359 41.2578 41.9102 41.375 41.957 41.5469C42.0117 41.7188 42.0391 41.9688 42.0391 42.2969C42.0391 42.625 42.0117 42.875 41.957 43.0469C41.9102 43.2188 41.8359 43.336 41.7344 43.3985C41.6328 43.461 41.4883 43.4922 41.3008 43.4922H40.6328V54.4844C40.6328 54.7422 40.5352 54.9336 40.3398 55.0586C40.1445 55.1914 39.8125 55.2578 39.3438 55.2578C38.9844 55.2578 38.7148 55.2071 38.5352 55.1055C38.3633 55.0117 38.2109 54.8555 38.0781 54.6367L32.8047 45.9063H32.7578V52.5977H34.0586C34.2461 52.5977 34.3906 52.6328 34.4922 52.7032C34.5938 52.7657 34.668 52.8828 34.7148 53.0547C34.7695 53.2266 34.7969 53.4766 34.7969 53.8047C34.7969 54.1328 34.7695 54.3828 34.7148 54.5547C34.668 54.7266 34.5938 54.8438 34.4922 54.9063C34.3906 54.9688 34.2461 55 34.0586 55H29.3242C29.1367 55 28.9922 54.9688 28.8906 54.9063C28.7891 54.8438 28.7109 54.7266 28.6562 54.5547C28.6094 54.3828 28.5859 54.1328 28.5859 53.8047C28.5859 53.4766 28.6094 53.2266 28.6562 53.0547C28.7109 52.8828 28.7891 52.7657 28.8906 52.7032C28.9922 52.6328 29.1367 52.5977 29.3242 52.5977H30.1094V43.4922H29.3242C29.1367 43.4922 28.9922 43.461 28.8906 43.3985C28.7891 43.336 28.7109 43.2188 28.6562 43.0469C28.6094 42.875 28.5859 42.625 28.5859 42.2969C28.5859 41.9688 28.6094 41.7188 28.6562 41.5469C28.7109 41.375 28.7891 41.2578 28.8906 41.1953C28.9922 41.125 29.1367 41.0899 29.3242 41.0899H32.418C32.7305 41.0899 32.9492 41.1953 33.0742 41.4063L37.9375 49.4571H37.9844V43.4922H36.9062C36.7188 43.4922 36.5742 43.461 36.4727 43.3985C36.3711 43.336 36.293 43.2188 36.2383 43.0469C36.1914 42.875 36.168 42.625 36.168 42.2969C36.168 41.9688 36.1914 41.7188 36.2383 41.5469C36.293 41.375 36.3711 41.2578 36.4727 41.1953C36.5742 41.125 36.7188 41.0899 36.9062 41.0899H41.3008ZM54.5195 41.0899C54.793 41.0899 54.9883 41.1485 55.1055 41.2657C55.2227 41.3828 55.2812 41.5782 55.2812 41.8516V45.3907C55.2812 45.6563 55.168 45.8477 54.9414 45.9649C54.7148 46.0742 54.3516 46.1289 53.8516 46.1289C53.3672 46.1289 53.0352 46.0742 52.8555 45.9649C52.6758 45.8555 52.5859 45.6641 52.5859 45.3907V43.6094H47.8984V46.5742H50.7578C51.0312 46.5742 51.2227 46.6641 51.332 46.8438C51.4414 47.0235 51.4961 47.3555 51.4961 47.8399C51.4961 48.3242 51.4414 48.6563 51.332 48.836C51.2227 49.0078 51.0312 49.0938 50.7578 49.0938H47.8984V52.4805H52.7031V50.1133C52.7031 49.8477 52.8164 49.6602 53.043 49.5508C53.2773 49.4336 53.6562 49.375 54.1797 49.375C54.6953 49.375 55.0469 49.4297 55.2344 49.5391C55.4219 49.6485 55.5156 49.8399 55.5156 50.1133V54.2383C55.5156 54.5039 55.457 54.6992 55.3398 54.8242C55.2227 54.9414 55.0273 55 54.7539 55H43.832C43.6445 55 43.5 54.9688 43.3984 54.9063C43.2969 54.8438 43.2188 54.7266 43.1641 54.5547C43.1172 54.3828 43.0938 54.1328 43.0938 53.8047C43.0938 53.4766 43.1172 53.2266 43.1641 53.0547C43.2188 52.8828 43.2969 52.7657 43.3984 52.7032C43.5 52.6328 43.6445 52.5977 43.832 52.5977H44.9688V43.4922H43.832C43.6445 43.4922 43.5 43.461 43.3984 43.3985C43.2969 43.336 43.2188 43.2188 43.1641 43.0469C43.1172 42.875 43.0938 42.625 43.0938 42.2969C43.0938 41.9688 43.1172 41.7188 43.1641 41.5469C43.2188 41.375 43.2969 41.2578 43.3984 41.1953C43.5 41.125 43.6445 41.0899 43.832 41.0899H54.5195ZM63.9766 40.8321C65.2578 40.8321 66.3867 41.125 67.3633 41.711C68.3398 42.2891 69.0938 43.125 69.625 44.2188C70.1641 45.3047 70.4336 46.5782 70.4336 48.0391C70.4336 49.5 70.1641 50.7774 69.625 51.8711C69.0938 52.9571 68.3398 53.793 67.3633 54.3789C66.3867 54.9649 65.2578 55.2578 63.9766 55.2578C62.6953 55.2578 61.5664 54.9649 60.5898 54.3789C59.6133 53.793 58.8555 52.9571 58.3164 51.8711C57.7852 50.7774 57.5195 49.5 57.5195 48.0391C57.5195 46.5782 57.7852 45.3047 58.3164 44.2188C58.8555 43.125 59.6133 42.2891 60.5898 41.711C61.5664 41.125 62.6953 40.8321 63.9766 40.8321ZM63.9766 43.4922C62.8906 43.4922 62.0664 43.8828 61.5039 44.6641C60.9414 45.4453 60.6602 46.5703 60.6602 48.0391C60.6602 49.5078 60.9414 50.6367 61.5039 51.4258C62.0664 52.2071 62.8906 52.5977 63.9766 52.5977C65.0625 52.5977 65.8867 52.2071 66.4492 51.4258C67.0117 50.6367 67.293 49.5078 67.293 48.0391C67.293 46.5703 67.0117 45.4453 66.4492 44.6641C65.8867 43.8828 65.0625 43.4922 63.9766 43.4922Z" fill="black"/>
</svg>
