<svg width="103" height="99" viewBox="0 0 103 99" fill="none" xmlns="http://www.w3.org/2000/svg">
<path d="M40.1212 8.97639C43.7779 -1.94252 59.222 -1.94253 62.8788 8.97638L66.7784 20.6203C68.4041 25.4745 72.9302 28.7629 78.0492 28.809L90.3282 28.9195C101.843 29.0232 106.615 43.7114 97.3607 50.5633L87.4918 57.8702C83.3775 60.9164 81.6487 66.2371 83.1867 71.1198L86.876 82.832C90.3355 93.815 77.841 102.893 68.4647 96.2087L58.4657 89.0807C54.2973 86.1091 48.7027 86.1091 44.5343 89.0807L34.5353 96.2087C25.159 102.893 12.6644 93.815 16.124 82.8321L19.8133 71.1198C21.3513 66.2371 19.6225 60.9164 15.5082 57.8702L5.63927 50.5634C-3.61522 43.7114 1.15725 29.0232 12.6718 28.9195L24.9508 28.809C30.0698 28.7629 34.5959 25.4745 36.2216 20.6203L40.1212 8.97639Z" fill="#00D740"/>
<path d="M44.3008 47.0898C44.4883 47.0898 44.6328 47.125 44.7344 47.1953C44.8359 47.2578 44.9102 47.375 44.957 47.5469C45.0117 47.7188 45.0391 47.9688 45.0391 48.2969C45.0391 48.625 45.0117 48.875 44.957 49.0469C44.9102 49.2188 44.8359 49.3359 44.7344 49.3984C44.6328 49.4609 44.4883 49.4922 44.3008 49.4922H43.6328V60.4844C43.6328 60.7422 43.5352 60.9336 43.3398 61.0586C43.1445 61.1914 42.8125 61.2578 42.3438 61.2578C41.9844 61.2578 41.7148 61.207 41.5352 61.1055C41.3633 61.0117 41.2109 60.8555 41.0781 60.6367L35.8047 51.9062H35.7578V58.5977H37.0586C37.2461 58.5977 37.3906 58.6328 37.4922 58.7031C37.5938 58.7656 37.668 58.8828 37.7148 59.0547C37.7695 59.2266 37.7969 59.4766 37.7969 59.8047C37.7969 60.1328 37.7695 60.3828 37.7148 60.5547C37.668 60.7266 37.5938 60.8438 37.4922 60.9062C37.3906 60.9688 37.2461 61 37.0586 61H32.3242C32.1367 61 31.9922 60.9688 31.8906 60.9062C31.7891 60.8438 31.7109 60.7266 31.6562 60.5547C31.6094 60.3828 31.5859 60.1328 31.5859 59.8047C31.5859 59.4766 31.6094 59.2266 31.6562 59.0547C31.7109 58.8828 31.7891 58.7656 31.8906 58.7031C31.9922 58.6328 32.1367 58.5977 32.3242 58.5977H33.1094V49.4922H32.3242C32.1367 49.4922 31.9922 49.4609 31.8906 49.3984C31.7891 49.3359 31.7109 49.2188 31.6562 49.0469C31.6094 48.875 31.5859 48.625 31.5859 48.2969C31.5859 47.9688 31.6094 47.7188 31.6562 47.5469C31.7109 47.375 31.7891 47.2578 31.8906 47.1953C31.9922 47.125 32.1367 47.0898 32.3242 47.0898H35.418C35.7305 47.0898 35.9492 47.1953 36.0742 47.4062L40.9375 55.457H40.9844V49.4922H39.9062C39.7188 49.4922 39.5742 49.4609 39.4727 49.3984C39.3711 49.3359 39.293 49.2188 39.2383 49.0469C39.1914 48.875 39.168 48.625 39.168 48.2969C39.168 47.9688 39.1914 47.7188 39.2383 47.5469C39.293 47.375 39.3711 47.2578 39.4727 47.1953C39.5742 47.125 39.7188 47.0898 39.9062 47.0898H44.3008ZM57.5195 47.0898C57.793 47.0898 57.9883 47.1484 58.1055 47.2656C58.2227 47.3828 58.2812 47.5781 58.2812 47.8516V51.3906C58.2812 51.6562 58.168 51.8477 57.9414 51.9648C57.7148 52.0742 57.3516 52.1289 56.8516 52.1289C56.3672 52.1289 56.0352 52.0742 55.8555 51.9648C55.6758 51.8555 55.5859 51.6641 55.5859 51.3906V49.6094H50.8984V52.5742H53.7578C54.0312 52.5742 54.2227 52.6641 54.332 52.8438C54.4414 53.0234 54.4961 53.3555 54.4961 53.8398C54.4961 54.3242 54.4414 54.6562 54.332 54.8359C54.2227 55.0078 54.0312 55.0938 53.7578 55.0938H50.8984V58.4805H55.7031V56.1133C55.7031 55.8477 55.8164 55.6602 56.043 55.5508C56.2773 55.4336 56.6562 55.375 57.1797 55.375C57.6953 55.375 58.0469 55.4297 58.2344 55.5391C58.4219 55.6484 58.5156 55.8398 58.5156 56.1133V60.2383C58.5156 60.5039 58.457 60.6992 58.3398 60.8242C58.2227 60.9414 58.0273 61 57.7539 61H46.832C46.6445 61 46.5 60.9688 46.3984 60.9062C46.2969 60.8438 46.2188 60.7266 46.1641 60.5547C46.1172 60.3828 46.0938 60.1328 46.0938 59.8047C46.0938 59.4766 46.1172 59.2266 46.1641 59.0547C46.2188 58.8828 46.2969 58.7656 46.3984 58.7031C46.5 58.6328 46.6445 58.5977 46.832 58.5977H47.9688V49.4922H46.832C46.6445 49.4922 46.5 49.4609 46.3984 49.3984C46.2969 49.3359 46.2188 49.2188 46.1641 49.0469C46.1172 48.875 46.0938 48.625 46.0938 48.2969C46.0938 47.9688 46.1172 47.7188 46.1641 47.5469C46.2188 47.375 46.2969 47.2578 46.3984 47.1953C46.5 47.125 46.6445 47.0898 46.832 47.0898H57.5195ZM66.9766 46.832C68.2578 46.832 69.3867 47.125 70.3633 47.7109C71.3398 48.2891 72.0938 49.125 72.625 50.2188C73.1641 51.3047 73.4336 52.5781 73.4336 54.0391C73.4336 55.5 73.1641 56.7773 72.625 57.8711C72.0938 58.957 71.3398 59.793 70.3633 60.3789C69.3867 60.9648 68.2578 61.2578 66.9766 61.2578C65.6953 61.2578 64.5664 60.9648 63.5898 60.3789C62.6133 59.793 61.8555 58.957 61.3164 57.8711C60.7852 56.7773 60.5195 55.5 60.5195 54.0391C60.5195 52.5781 60.7852 51.3047 61.3164 50.2188C61.8555 49.125 62.6133 48.2891 63.5898 47.7109C64.5664 47.125 65.6953 46.832 66.9766 46.832ZM66.9766 49.4922C65.8906 49.4922 65.0664 49.8828 64.5039 50.6641C63.9414 51.4453 63.6602 52.5703 63.6602 54.0391C63.6602 55.5078 63.9414 56.6367 64.5039 57.4258C65.0664 58.207 65.8906 58.5977 66.9766 58.5977C68.0625 58.5977 68.8867 58.207 69.4492 57.4258C70.0117 56.6367 70.293 55.5078 70.293 54.0391C70.293 52.5703 70.0117 51.4453 69.4492 50.6641C68.8867 49.8828 68.0625 49.4922 66.9766 49.4922Z" fill="black"/>
</svg>
