<svg width="87" height="101" viewBox="0 0 87 101" fill="none" xmlns="http://www.w3.org/2000/svg">
<path d="M0 25.7107C26.7949 10.2406 59.8076 10.2406 86.6025 25.7107C86.6025 56.6508 70.0962 85.2406 43.3013 100.711C16.5064 85.2406 0 56.6508 0 25.7107Z" fill="#00D740"/>
<path d="M35.3008 43.0898C35.4883 43.0898 35.6328 43.125 35.7344 43.1953C35.8359 43.2578 35.9102 43.375 35.957 43.5469C36.0117 43.7188 36.0391 43.9688 36.0391 44.2969C36.0391 44.625 36.0117 44.875 35.957 45.0469C35.9102 45.2188 35.8359 45.3359 35.7344 45.3984C35.6328 45.4609 35.4883 45.4922 35.3008 45.4922H34.6328V56.4844C34.6328 56.7422 34.5352 56.9336 34.3398 57.0586C34.1445 57.1914 33.8125 57.2578 33.3438 57.2578C32.9844 57.2578 32.7148 57.207 32.5352 57.1055C32.3633 57.0117 32.2109 56.8555 32.0781 56.6367L26.8047 47.9062H26.7578V54.5977H28.0586C28.2461 54.5977 28.3906 54.6328 28.4922 54.7031C28.5938 54.7656 28.668 54.8828 28.7148 55.0547C28.7695 55.2266 28.7969 55.4766 28.7969 55.8047C28.7969 56.1328 28.7695 56.3828 28.7148 56.5547C28.668 56.7266 28.5938 56.8438 28.4922 56.9062C28.3906 56.9688 28.2461 57 28.0586 57H23.3242C23.1367 57 22.9922 56.9688 22.8906 56.9062C22.7891 56.8438 22.7109 56.7266 22.6562 56.5547C22.6094 56.3828 22.5859 56.1328 22.5859 55.8047C22.5859 55.4766 22.6094 55.2266 22.6562 55.0547C22.7109 54.8828 22.7891 54.7656 22.8906 54.7031C22.9922 54.6328 23.1367 54.5977 23.3242 54.5977H24.1094V45.4922H23.3242C23.1367 45.4922 22.9922 45.4609 22.8906 45.3984C22.7891 45.3359 22.7109 45.2188 22.6562 45.0469C22.6094 44.875 22.5859 44.625 22.5859 44.2969C22.5859 43.9688 22.6094 43.7188 22.6562 43.5469C22.7109 43.375 22.7891 43.2578 22.8906 43.1953C22.9922 43.125 23.1367 43.0898 23.3242 43.0898H26.418C26.7305 43.0898 26.9492 43.1953 27.0742 43.4062L31.9375 51.457H31.9844V45.4922H30.9062C30.7188 45.4922 30.5742 45.4609 30.4727 45.3984C30.3711 45.3359 30.293 45.2188 30.2383 45.0469C30.1914 44.875 30.168 44.625 30.168 44.2969C30.168 43.9688 30.1914 43.7188 30.2383 43.5469C30.293 43.375 30.3711 43.2578 30.4727 43.1953C30.5742 43.125 30.7188 43.0898 30.9062 43.0898H35.3008ZM48.5195 43.0898C48.793 43.0898 48.9883 43.1484 49.1055 43.2656C49.2227 43.3828 49.2812 43.5781 49.2812 43.8516V47.3906C49.2812 47.6562 49.168 47.8477 48.9414 47.9648C48.7148 48.0742 48.3516 48.1289 47.8516 48.1289C47.3672 48.1289 47.0352 48.0742 46.8555 47.9648C46.6758 47.8555 46.5859 47.6641 46.5859 47.3906V45.6094H41.8984V48.5742H44.7578C45.0312 48.5742 45.2227 48.6641 45.332 48.8438C45.4414 49.0234 45.4961 49.3555 45.4961 49.8398C45.4961 50.3242 45.4414 50.6562 45.332 50.8359C45.2227 51.0078 45.0312 51.0938 44.7578 51.0938H41.8984V54.4805H46.7031V52.1133C46.7031 51.8477 46.8164 51.6602 47.043 51.5508C47.2773 51.4336 47.6562 51.375 48.1797 51.375C48.6953 51.375 49.0469 51.4297 49.2344 51.5391C49.4219 51.6484 49.5156 51.8398 49.5156 52.1133V56.2383C49.5156 56.5039 49.457 56.6992 49.3398 56.8242C49.2227 56.9414 49.0273 57 48.7539 57H37.832C37.6445 57 37.5 56.9688 37.3984 56.9062C37.2969 56.8438 37.2188 56.7266 37.1641 56.5547C37.1172 56.3828 37.0938 56.1328 37.0938 55.8047C37.0938 55.4766 37.1172 55.2266 37.1641 55.0547C37.2188 54.8828 37.2969 54.7656 37.3984 54.7031C37.5 54.6328 37.6445 54.5977 37.832 54.5977H38.9688V45.4922H37.832C37.6445 45.4922 37.5 45.4609 37.3984 45.3984C37.2969 45.3359 37.2188 45.2188 37.1641 45.0469C37.1172 44.875 37.0938 44.625 37.0938 44.2969C37.0938 43.9688 37.1172 43.7188 37.1641 43.5469C37.2188 43.375 37.2969 43.2578 37.3984 43.1953C37.5 43.125 37.6445 43.0898 37.832 43.0898H48.5195ZM57.9766 42.832C59.2578 42.832 60.3867 43.125 61.3633 43.7109C62.3398 44.2891 63.0938 45.125 63.625 46.2188C64.1641 47.3047 64.4336 48.5781 64.4336 50.0391C64.4336 51.5 64.1641 52.7773 63.625 53.8711C63.0938 54.957 62.3398 55.793 61.3633 56.3789C60.3867 56.9648 59.2578 57.2578 57.9766 57.2578C56.6953 57.2578 55.5664 56.9648 54.5898 56.3789C53.6133 55.793 52.8555 54.957 52.3164 53.8711C51.7852 52.7773 51.5195 51.5 51.5195 50.0391C51.5195 48.5781 51.7852 47.3047 52.3164 46.2188C52.8555 45.125 53.6133 44.2891 54.5898 43.7109C55.5664 43.125 56.6953 42.832 57.9766 42.832ZM57.9766 45.4922C56.8906 45.4922 56.0664 45.8828 55.5039 46.6641C54.9414 47.4453 54.6602 48.5703 54.6602 50.0391C54.6602 51.5078 54.9414 52.6367 55.5039 53.4258C56.0664 54.207 56.8906 54.5977 57.9766 54.5977C59.0625 54.5977 59.8867 54.207 60.4492 53.4258C61.0117 52.6367 61.293 51.5078 61.293 50.0391C61.293 48.5703 61.0117 47.4453 60.4492 46.6641C59.8867 45.8828 59.0625 45.4922 57.9766 45.4922Z" fill="black"/>
</svg>
