<svg width="88" height="101" viewBox="0 0 88 101" fill="none" xmlns="http://www.w3.org/2000/svg">
<path d="M44 0.710693L87.3013 25.7107C87.3013 56.6508 70.7949 85.2406 44 100.711C17.2051 85.2406 0.69873 56.6508 0.69873 25.7107L44 0.710693Z" fill="#00D740"/>
<path d="M36.3008 43.0898C36.4883 43.0898 36.6328 43.125 36.7344 43.1953C36.8359 43.2578 36.9102 43.375 36.957 43.5469C37.0117 43.7188 37.0391 43.9688 37.0391 44.2969C37.0391 44.625 37.0117 44.875 36.957 45.0469C36.9102 45.2188 36.8359 45.3359 36.7344 45.3984C36.6328 45.4609 36.4883 45.4922 36.3008 45.4922H35.6328V56.4844C35.6328 56.7422 35.5352 56.9336 35.3398 57.0586C35.1445 57.1914 34.8125 57.2578 34.3438 57.2578C33.9844 57.2578 33.7148 57.207 33.5352 57.1055C33.3633 57.0117 33.2109 56.8555 33.0781 56.6367L27.8047 47.9062H27.7578V54.5977H29.0586C29.2461 54.5977 29.3906 54.6328 29.4922 54.7031C29.5938 54.7656 29.668 54.8828 29.7148 55.0547C29.7695 55.2266 29.7969 55.4766 29.7969 55.8047C29.7969 56.1328 29.7695 56.3828 29.7148 56.5547C29.668 56.7266 29.5938 56.8438 29.4922 56.9062C29.3906 56.9688 29.2461 57 29.0586 57H24.3242C24.1367 57 23.9922 56.9688 23.8906 56.9062C23.7891 56.8438 23.7109 56.7266 23.6562 56.5547C23.6094 56.3828 23.5859 56.1328 23.5859 55.8047C23.5859 55.4766 23.6094 55.2266 23.6562 55.0547C23.7109 54.8828 23.7891 54.7656 23.8906 54.7031C23.9922 54.6328 24.1367 54.5977 24.3242 54.5977H25.1094V45.4922H24.3242C24.1367 45.4922 23.9922 45.4609 23.8906 45.3984C23.7891 45.3359 23.7109 45.2188 23.6562 45.0469C23.6094 44.875 23.5859 44.625 23.5859 44.2969C23.5859 43.9688 23.6094 43.7188 23.6562 43.5469C23.7109 43.375 23.7891 43.2578 23.8906 43.1953C23.9922 43.125 24.1367 43.0898 24.3242 43.0898H27.418C27.7305 43.0898 27.9492 43.1953 28.0742 43.4062L32.9375 51.457H32.9844V45.4922H31.9062C31.7188 45.4922 31.5742 45.4609 31.4727 45.3984C31.3711 45.3359 31.293 45.2188 31.2383 45.0469C31.1914 44.875 31.168 44.625 31.168 44.2969C31.168 43.9688 31.1914 43.7188 31.2383 43.5469C31.293 43.375 31.3711 43.2578 31.4727 43.1953C31.5742 43.125 31.7188 43.0898 31.9062 43.0898H36.3008ZM49.5195 43.0898C49.793 43.0898 49.9883 43.1484 50.1055 43.2656C50.2227 43.3828 50.2812 43.5781 50.2812 43.8516V47.3906C50.2812 47.6562 50.168 47.8477 49.9414 47.9648C49.7148 48.0742 49.3516 48.1289 48.8516 48.1289C48.3672 48.1289 48.0352 48.0742 47.8555 47.9648C47.6758 47.8555 47.5859 47.6641 47.5859 47.3906V45.6094H42.8984V48.5742H45.7578C46.0312 48.5742 46.2227 48.6641 46.332 48.8438C46.4414 49.0234 46.4961 49.3555 46.4961 49.8398C46.4961 50.3242 46.4414 50.6562 46.332 50.8359C46.2227 51.0078 46.0312 51.0938 45.7578 51.0938H42.8984V54.4805H47.7031V52.1133C47.7031 51.8477 47.8164 51.6602 48.043 51.5508C48.2773 51.4336 48.6562 51.375 49.1797 51.375C49.6953 51.375 50.0469 51.4297 50.2344 51.5391C50.4219 51.6484 50.5156 51.8398 50.5156 52.1133V56.2383C50.5156 56.5039 50.457 56.6992 50.3398 56.8242C50.2227 56.9414 50.0273 57 49.7539 57H38.832C38.6445 57 38.5 56.9688 38.3984 56.9062C38.2969 56.8438 38.2188 56.7266 38.1641 56.5547C38.1172 56.3828 38.0938 56.1328 38.0938 55.8047C38.0938 55.4766 38.1172 55.2266 38.1641 55.0547C38.2188 54.8828 38.2969 54.7656 38.3984 54.7031C38.5 54.6328 38.6445 54.5977 38.832 54.5977H39.9688V45.4922H38.832C38.6445 45.4922 38.5 45.4609 38.3984 45.3984C38.2969 45.3359 38.2188 45.2188 38.1641 45.0469C38.1172 44.875 38.0938 44.625 38.0938 44.2969C38.0938 43.9688 38.1172 43.7188 38.1641 43.5469C38.2188 43.375 38.2969 43.2578 38.3984 43.1953C38.5 43.125 38.6445 43.0898 38.832 43.0898H49.5195ZM58.9766 42.832C60.2578 42.832 61.3867 43.125 62.3633 43.7109C63.3398 44.2891 64.0938 45.125 64.625 46.2188C65.1641 47.3047 65.4336 48.5781 65.4336 50.0391C65.4336 51.5 65.1641 52.7773 64.625 53.8711C64.0938 54.957 63.3398 55.793 62.3633 56.3789C61.3867 56.9648 60.2578 57.2578 58.9766 57.2578C57.6953 57.2578 56.5664 56.9648 55.5898 56.3789C54.6133 55.793 53.8555 54.957 53.3164 53.8711C52.7852 52.7773 52.5195 51.5 52.5195 50.0391C52.5195 48.5781 52.7852 47.3047 53.3164 46.2188C53.8555 45.125 54.6133 44.2891 55.5898 43.7109C56.5664 43.125 57.6953 42.832 58.9766 42.832ZM58.9766 45.4922C57.8906 45.4922 57.0664 45.8828 56.5039 46.6641C55.9414 47.4453 55.6602 48.5703 55.6602 50.0391C55.6602 51.5078 55.9414 52.6367 56.5039 53.4258C57.0664 54.207 57.8906 54.5977 58.9766 54.5977C60.0625 54.5977 60.8867 54.207 61.4492 53.4258C62.0117 52.6367 62.293 51.5078 62.293 50.0391C62.293 48.5703 62.0117 47.4453 61.4492 46.6641C60.8867 45.8828 60.0625 45.4922 58.9766 45.4922Z" fill="black"/>
</svg>
