<svg width="100" height="101" viewBox="0 0 100 101" fill="none" xmlns="http://www.w3.org/2000/svg">
<rect y="0.710693" width="100" height="100" fill="#00D740"/>
<path d="M41.3008 44.0898C41.4883 44.0898 41.6328 44.125 41.7344 44.1953C41.8359 44.2578 41.9102 44.375 41.957 44.5469C42.0117 44.7188 42.0391 44.9688 42.0391 45.2969C42.0391 45.625 42.0117 45.875 41.957 46.0469C41.9102 46.2188 41.8359 46.3359 41.7344 46.3984C41.6328 46.4609 41.4883 46.4922 41.3008 46.4922H40.6328V57.4844C40.6328 57.7422 40.5352 57.9336 40.3398 58.0586C40.1445 58.1914 39.8125 58.2578 39.3438 58.2578C38.9844 58.2578 38.7148 58.207 38.5352 58.1055C38.3633 58.0117 38.2109 57.8555 38.0781 57.6367L32.8047 48.9062H32.7578V55.5977H34.0586C34.2461 55.5977 34.3906 55.6328 34.4922 55.7031C34.5938 55.7656 34.668 55.8828 34.7148 56.0547C34.7695 56.2266 34.7969 56.4766 34.7969 56.8047C34.7969 57.1328 34.7695 57.3828 34.7148 57.5547C34.668 57.7266 34.5938 57.8438 34.4922 57.9062C34.3906 57.9688 34.2461 58 34.0586 58H29.3242C29.1367 58 28.9922 57.9688 28.8906 57.9062C28.7891 57.8438 28.7109 57.7266 28.6562 57.5547C28.6094 57.3828 28.5859 57.1328 28.5859 56.8047C28.5859 56.4766 28.6094 56.2266 28.6562 56.0547C28.7109 55.8828 28.7891 55.7656 28.8906 55.7031C28.9922 55.6328 29.1367 55.5977 29.3242 55.5977H30.1094V46.4922H29.3242C29.1367 46.4922 28.9922 46.4609 28.8906 46.3984C28.7891 46.3359 28.7109 46.2188 28.6562 46.0469C28.6094 45.875 28.5859 45.625 28.5859 45.2969C28.5859 44.9688 28.6094 44.7188 28.6562 44.5469C28.7109 44.375 28.7891 44.2578 28.8906 44.1953C28.9922 44.125 29.1367 44.0898 29.3242 44.0898H32.418C32.7305 44.0898 32.9492 44.1953 33.0742 44.4062L37.9375 52.457H37.9844V46.4922H36.9062C36.7188 46.4922 36.5742 46.4609 36.4727 46.3984C36.3711 46.3359 36.293 46.2188 36.2383 46.0469C36.1914 45.875 36.168 45.625 36.168 45.2969C36.168 44.9688 36.1914 44.7188 36.2383 44.5469C36.293 44.375 36.3711 44.2578 36.4727 44.1953C36.5742 44.125 36.7188 44.0898 36.9062 44.0898H41.3008ZM54.5195 44.0898C54.793 44.0898 54.9883 44.1484 55.1055 44.2656C55.2227 44.3828 55.2812 44.5781 55.2812 44.8516V48.3906C55.2812 48.6562 55.168 48.8477 54.9414 48.9648C54.7148 49.0742 54.3516 49.1289 53.8516 49.1289C53.3672 49.1289 53.0352 49.0742 52.8555 48.9648C52.6758 48.8555 52.5859 48.6641 52.5859 48.3906V46.6094H47.8984V49.5742H50.7578C51.0312 49.5742 51.2227 49.6641 51.332 49.8438C51.4414 50.0234 51.4961 50.3555 51.4961 50.8398C51.4961 51.3242 51.4414 51.6562 51.332 51.8359C51.2227 52.0078 51.0312 52.0938 50.7578 52.0938H47.8984V55.4805H52.7031V53.1133C52.7031 52.8477 52.8164 52.6602 53.043 52.5508C53.2773 52.4336 53.6562 52.375 54.1797 52.375C54.6953 52.375 55.0469 52.4297 55.2344 52.5391C55.4219 52.6484 55.5156 52.8398 55.5156 53.1133V57.2383C55.5156 57.5039 55.457 57.6992 55.3398 57.8242C55.2227 57.9414 55.0273 58 54.7539 58H43.832C43.6445 58 43.5 57.9688 43.3984 57.9062C43.2969 57.8438 43.2188 57.7266 43.1641 57.5547C43.1172 57.3828 43.0938 57.1328 43.0938 56.8047C43.0938 56.4766 43.1172 56.2266 43.1641 56.0547C43.2188 55.8828 43.2969 55.7656 43.3984 55.7031C43.5 55.6328 43.6445 55.5977 43.832 55.5977H44.9688V46.4922H43.832C43.6445 46.4922 43.5 46.4609 43.3984 46.3984C43.2969 46.3359 43.2188 46.2188 43.1641 46.0469C43.1172 45.875 43.0938 45.625 43.0938 45.2969C43.0938 44.9688 43.1172 44.7188 43.1641 44.5469C43.2188 44.375 43.2969 44.2578 43.3984 44.1953C43.5 44.125 43.6445 44.0898 43.832 44.0898H54.5195ZM63.9766 43.832C65.2578 43.832 66.3867 44.125 67.3633 44.7109C68.3398 45.2891 69.0938 46.125 69.625 47.2188C70.1641 48.3047 70.4336 49.5781 70.4336 51.0391C70.4336 52.5 70.1641 53.7773 69.625 54.8711C69.0938 55.957 68.3398 56.793 67.3633 57.3789C66.3867 57.9648 65.2578 58.2578 63.9766 58.2578C62.6953 58.2578 61.5664 57.9648 60.5898 57.3789C59.6133 56.793 58.8555 55.957 58.3164 54.8711C57.7852 53.7773 57.5195 52.5 57.5195 51.0391C57.5195 49.5781 57.7852 48.3047 58.3164 47.2188C58.8555 46.125 59.6133 45.2891 60.5898 44.7109C61.5664 44.125 62.6953 43.832 63.9766 43.832ZM63.9766 46.4922C62.8906 46.4922 62.0664 46.8828 61.5039 47.6641C60.9414 48.4453 60.6602 49.5703 60.6602 51.0391C60.6602 52.5078 60.9414 53.6367 61.5039 54.4258C62.0664 55.207 62.8906 55.5977 63.9766 55.5977C65.0625 55.5977 65.8867 55.207 66.4492 54.4258C67.0117 53.6367 67.293 52.5078 67.293 51.0391C67.293 49.5703 67.0117 48.4453 66.4492 47.6641C65.8867 46.8828 65.0625 46.4922 63.9766 46.4922Z" fill="black"/>
</svg>
