<svg width="104" height="101" viewBox="0 0 104 101" fill="none" xmlns="http://www.w3.org/2000/svg">
<path d="M32.2947 62.2492L19.1579 100.711L52 76.5349L84.2947 100.711L72.2526 62.2492L104 38.6228H64.5895L52 0.710693L39.4105 38.6228H0L32.2947 62.2492Z" fill="#00D740"/>
<path d="M45.3008 46.0898C45.4883 46.0898 45.6328 46.125 45.7344 46.1953C45.8359 46.2578 45.9102 46.375 45.957 46.5469C46.0117 46.7188 46.0391 46.9688 46.0391 47.2969C46.0391 47.625 46.0117 47.875 45.957 48.0469C45.9102 48.2188 45.8359 48.3359 45.7344 48.3984C45.6328 48.4609 45.4883 48.4922 45.3008 48.4922H44.6328V59.4844C44.6328 59.7422 44.5352 59.9336 44.3398 60.0586C44.1445 60.1914 43.8125 60.2578 43.3438 60.2578C42.9844 60.2578 42.7148 60.207 42.5352 60.1055C42.3633 60.0117 42.2109 59.8555 42.0781 59.6367L36.8047 50.9062H36.7578V57.5977H38.0586C38.2461 57.5977 38.3906 57.6328 38.4922 57.7031C38.5938 57.7656 38.668 57.8828 38.7148 58.0547C38.7695 58.2266 38.7969 58.4766 38.7969 58.8047C38.7969 59.1328 38.7695 59.3828 38.7148 59.5547C38.668 59.7266 38.5938 59.8438 38.4922 59.9062C38.3906 59.9688 38.2461 60 38.0586 60H33.3242C33.1367 60 32.9922 59.9688 32.8906 59.9062C32.7891 59.8438 32.7109 59.7266 32.6562 59.5547C32.6094 59.3828 32.5859 59.1328 32.5859 58.8047C32.5859 58.4766 32.6094 58.2266 32.6562 58.0547C32.7109 57.8828 32.7891 57.7656 32.8906 57.7031C32.9922 57.6328 33.1367 57.5977 33.3242 57.5977H34.1094V48.4922H33.3242C33.1367 48.4922 32.9922 48.4609 32.8906 48.3984C32.7891 48.3359 32.7109 48.2188 32.6562 48.0469C32.6094 47.875 32.5859 47.625 32.5859 47.2969C32.5859 46.9688 32.6094 46.7188 32.6562 46.5469C32.7109 46.375 32.7891 46.2578 32.8906 46.1953C32.9922 46.125 33.1367 46.0898 33.3242 46.0898H36.418C36.7305 46.0898 36.9492 46.1953 37.0742 46.4062L41.9375 54.457H41.9844V48.4922H40.9062C40.7188 48.4922 40.5742 48.4609 40.4727 48.3984C40.3711 48.3359 40.293 48.2188 40.2383 48.0469C40.1914 47.875 40.168 47.625 40.168 47.2969C40.168 46.9688 40.1914 46.7188 40.2383 46.5469C40.293 46.375 40.3711 46.2578 40.4727 46.1953C40.5742 46.125 40.7188 46.0898 40.9062 46.0898H45.3008ZM58.5195 46.0898C58.793 46.0898 58.9883 46.1484 59.1055 46.2656C59.2227 46.3828 59.2812 46.5781 59.2812 46.8516V50.3906C59.2812 50.6562 59.168 50.8477 58.9414 50.9648C58.7148 51.0742 58.3516 51.1289 57.8516 51.1289C57.3672 51.1289 57.0352 51.0742 56.8555 50.9648C56.6758 50.8555 56.5859 50.6641 56.5859 50.3906V48.6094H51.8984V51.5742H54.7578C55.0312 51.5742 55.2227 51.6641 55.332 51.8438C55.4414 52.0234 55.4961 52.3555 55.4961 52.8398C55.4961 53.3242 55.4414 53.6562 55.332 53.8359C55.2227 54.0078 55.0312 54.0938 54.7578 54.0938H51.8984V57.4805H56.7031V55.1133C56.7031 54.8477 56.8164 54.6602 57.043 54.5508C57.2773 54.4336 57.6562 54.375 58.1797 54.375C58.6953 54.375 59.0469 54.4297 59.2344 54.5391C59.4219 54.6484 59.5156 54.8398 59.5156 55.1133V59.2383C59.5156 59.5039 59.457 59.6992 59.3398 59.8242C59.2227 59.9414 59.0273 60 58.7539 60H47.832C47.6445 60 47.5 59.9688 47.3984 59.9062C47.2969 59.8438 47.2188 59.7266 47.1641 59.5547C47.1172 59.3828 47.0938 59.1328 47.0938 58.8047C47.0938 58.4766 47.1172 58.2266 47.1641 58.0547C47.2188 57.8828 47.2969 57.7656 47.3984 57.7031C47.5 57.6328 47.6445 57.5977 47.832 57.5977H48.9688V48.4922H47.832C47.6445 48.4922 47.5 48.4609 47.3984 48.3984C47.2969 48.3359 47.2188 48.2188 47.1641 48.0469C47.1172 47.875 47.0938 47.625 47.0938 47.2969C47.0938 46.9688 47.1172 46.7188 47.1641 46.5469C47.2188 46.375 47.2969 46.2578 47.3984 46.1953C47.5 46.125 47.6445 46.0898 47.832 46.0898H58.5195ZM67.9766 45.832C69.2578 45.832 70.3867 46.125 71.3633 46.7109C72.3398 47.2891 73.0938 48.125 73.625 49.2188C74.1641 50.3047 74.4336 51.5781 74.4336 53.0391C74.4336 54.5 74.1641 55.7773 73.625 56.8711C73.0938 57.957 72.3398 58.793 71.3633 59.3789C70.3867 59.9648 69.2578 60.2578 67.9766 60.2578C66.6953 60.2578 65.5664 59.9648 64.5898 59.3789C63.6133 58.793 62.8555 57.957 62.3164 56.8711C61.7852 55.7773 61.5195 54.5 61.5195 53.0391C61.5195 51.5781 61.7852 50.3047 62.3164 49.2188C62.8555 48.125 63.6133 47.2891 64.5898 46.7109C65.5664 46.125 66.6953 45.832 67.9766 45.832ZM67.9766 48.4922C66.8906 48.4922 66.0664 48.8828 65.5039 49.6641C64.9414 50.4453 64.6602 51.5703 64.6602 53.0391C64.6602 54.5078 64.9414 55.6367 65.5039 56.4258C66.0664 57.207 66.8906 57.5977 67.9766 57.5977C69.0625 57.5977 69.8867 57.207 70.4492 56.4258C71.0117 55.6367 71.293 54.5078 71.293 53.0391C71.293 51.5703 71.0117 50.4453 70.4492 49.6641C69.8867 48.8828 69.0625 48.4922 67.9766 48.4922Z" fill="black"/>
</svg>
