<svg width="115" height="101" viewBox="0 0 115 101" fill="none" xmlns="http://www.w3.org/2000/svg">
<path d="M57.8324 0.710693L0 100.711H115L57.8324 0.710693Z" fill="#00D740"/>
<path d="M49.3008 62.0898C49.4883 62.0898 49.6328 62.125 49.7344 62.1953C49.8359 62.2578 49.9102 62.375 49.957 62.5469C50.0117 62.7188 50.0391 62.9688 50.0391 63.2969C50.0391 63.625 50.0117 63.875 49.957 64.0469C49.9102 64.2188 49.8359 64.3359 49.7344 64.3984C49.6328 64.4609 49.4883 64.4922 49.3008 64.4922H48.6328V75.4844C48.6328 75.7422 48.5352 75.9336 48.3398 76.0586C48.1445 76.1914 47.8125 76.2578 47.3438 76.2578C46.9844 76.2578 46.7148 76.207 46.5352 76.1055C46.3633 76.0117 46.2109 75.8555 46.0781 75.6367L40.8047 66.9062H40.7578V73.5977H42.0586C42.2461 73.5977 42.3906 73.6328 42.4922 73.7031C42.5938 73.7656 42.668 73.8828 42.7148 74.0547C42.7695 74.2266 42.7969 74.4766 42.7969 74.8047C42.7969 75.1328 42.7695 75.3828 42.7148 75.5547C42.668 75.7266 42.5938 75.8438 42.4922 75.9062C42.3906 75.9688 42.2461 76 42.0586 76H37.3242C37.1367 76 36.9922 75.9688 36.8906 75.9062C36.7891 75.8438 36.7109 75.7266 36.6562 75.5547C36.6094 75.3828 36.5859 75.1328 36.5859 74.8047C36.5859 74.4766 36.6094 74.2266 36.6562 74.0547C36.7109 73.8828 36.7891 73.7656 36.8906 73.7031C36.9922 73.6328 37.1367 73.5977 37.3242 73.5977H38.1094V64.4922H37.3242C37.1367 64.4922 36.9922 64.4609 36.8906 64.3984C36.7891 64.3359 36.7109 64.2188 36.6562 64.0469C36.6094 63.875 36.5859 63.625 36.5859 63.2969C36.5859 62.9688 36.6094 62.7188 36.6562 62.5469C36.7109 62.375 36.7891 62.2578 36.8906 62.1953C36.9922 62.125 37.1367 62.0898 37.3242 62.0898H40.418C40.7305 62.0898 40.9492 62.1953 41.0742 62.4062L45.9375 70.457H45.9844V64.4922H44.9062C44.7188 64.4922 44.5742 64.4609 44.4727 64.3984C44.3711 64.3359 44.293 64.2188 44.2383 64.0469C44.1914 63.875 44.168 63.625 44.168 63.2969C44.168 62.9688 44.1914 62.7188 44.2383 62.5469C44.293 62.375 44.3711 62.2578 44.4727 62.1953C44.5742 62.125 44.7188 62.0898 44.9062 62.0898H49.3008ZM62.5195 62.0898C62.793 62.0898 62.9883 62.1484 63.1055 62.2656C63.2227 62.3828 63.2812 62.5781 63.2812 62.8516V66.3906C63.2812 66.6562 63.168 66.8477 62.9414 66.9648C62.7148 67.0742 62.3516 67.1289 61.8516 67.1289C61.3672 67.1289 61.0352 67.0742 60.8555 66.9648C60.6758 66.8555 60.5859 66.6641 60.5859 66.3906V64.6094H55.8984V67.5742H58.7578C59.0312 67.5742 59.2227 67.6641 59.332 67.8438C59.4414 68.0234 59.4961 68.3555 59.4961 68.8398C59.4961 69.3242 59.4414 69.6562 59.332 69.8359C59.2227 70.0078 59.0312 70.0938 58.7578 70.0938H55.8984V73.4805H60.7031V71.1133C60.7031 70.8477 60.8164 70.6602 61.043 70.5508C61.2773 70.4336 61.6562 70.375 62.1797 70.375C62.6953 70.375 63.0469 70.4297 63.2344 70.5391C63.4219 70.6484 63.5156 70.8398 63.5156 71.1133V75.2383C63.5156 75.5039 63.457 75.6992 63.3398 75.8242C63.2227 75.9414 63.0273 76 62.7539 76H51.832C51.6445 76 51.5 75.9688 51.3984 75.9062C51.2969 75.8438 51.2188 75.7266 51.1641 75.5547C51.1172 75.3828 51.0938 75.1328 51.0938 74.8047C51.0938 74.4766 51.1172 74.2266 51.1641 74.0547C51.2188 73.8828 51.2969 73.7656 51.3984 73.7031C51.5 73.6328 51.6445 73.5977 51.832 73.5977H52.9688V64.4922H51.832C51.6445 64.4922 51.5 64.4609 51.3984 64.3984C51.2969 64.3359 51.2188 64.2188 51.1641 64.0469C51.1172 63.875 51.0938 63.625 51.0938 63.2969C51.0938 62.9688 51.1172 62.7188 51.1641 62.5469C51.2188 62.375 51.2969 62.2578 51.3984 62.1953C51.5 62.125 51.6445 62.0898 51.832 62.0898H62.5195ZM71.9766 61.832C73.2578 61.832 74.3867 62.125 75.3633 62.7109C76.3398 63.2891 77.0938 64.125 77.625 65.2188C78.1641 66.3047 78.4336 67.5781 78.4336 69.0391C78.4336 70.5 78.1641 71.7773 77.625 72.8711C77.0938 73.957 76.3398 74.793 75.3633 75.3789C74.3867 75.9648 73.2578 76.2578 71.9766 76.2578C70.6953 76.2578 69.5664 75.9648 68.5898 75.3789C67.6133 74.793 66.8555 73.957 66.3164 72.8711C65.7852 71.7773 65.5195 70.5 65.5195 69.0391C65.5195 67.5781 65.7852 66.3047 66.3164 65.2188C66.8555 64.125 67.6133 63.2891 68.5898 62.7109C69.5664 62.125 70.6953 61.832 71.9766 61.832ZM71.9766 64.4922C70.8906 64.4922 70.0664 64.8828 69.5039 65.6641C68.9414 66.4453 68.6602 67.5703 68.6602 69.0391C68.6602 70.5078 68.9414 71.6367 69.5039 72.4258C70.0664 73.207 70.8906 73.5977 71.9766 73.5977C73.0625 73.5977 73.8867 73.207 74.4492 72.4258C75.0117 71.6367 75.293 70.5078 75.293 69.0391C75.293 67.5703 75.0117 66.4453 74.4492 65.6641C73.8867 64.8828 73.0625 64.4922 71.9766 64.4922Z" fill="black"/>
</svg>
